<?xml version="1.0" standalone="no"?><!DOCTYPE svg PUBLIC "-//W3C//DTD SVG 1.1//EN" "http://www.w3.org/Graphics/SVG/1.1/DTD/svg11.dtd"><svg class="icon" width="200px" height="200.00px" viewBox="0 0 1024 1024" version="1.1" xmlns="http://www.w3.org/2000/svg"><path fill="#333333" d="M883.2 320h-166.4V204.8C716.8 89.6 620.8 0 512 0S307.2 89.6 307.2 204.8V320H140.8c-19.2 0-32 12.8-32 32v537.6C108.8 979.2 320 1024 512 1024s403.2-44.8 403.2-134.4V352c0-19.2-12.8-32-32-32z m-512-115.2C371.2 128 435.2 64 512 64c76.8 0 140.8 64 140.8 140.8V320H371.2V204.8zM512 960c-224 0-332.8-51.2-339.2-70.4V384h672v505.6c0 19.2-108.8 70.4-332.8 70.4z"  /><path fill="#333333" d="M512 537.6c-64 0-121.6 51.2-121.6 121.6 0 64 51.2 121.6 121.6 121.6 64 0 121.6-51.2 121.6-121.6C633.6 588.8 576 537.6 512 537.6z m0 172.8c-32 0-57.6-25.6-57.6-57.6s25.6-51.2 57.6-51.2 57.6 25.6 57.6 57.6-25.6 51.2-57.6 51.2z"  /></svg>