<?xml version="1.0" standalone="no"?><!DOCTYPE svg PUBLIC "-//W3C//DTD SVG 1.1//EN" "http://www.w3.org/Graphics/SVG/1.1/DTD/svg11.dtd"><svg class="icon" width="200px" height="200.00px" viewBox="0 0 1024 1024" version="1.1" xmlns="http://www.w3.org/2000/svg"><path fill="#333333" d="M233.216 217.6512a33.536 33.536 0 0 0 0 66.8672h330.9056a33.536 33.536 0 0 0 0-66.8672zM423.68 386.2016h-190.464a33.536 33.536 0 0 0 0 66.8672h190.464a33.536 33.536 0 0 0 0-66.8672zM367.4624 621.6192a33.536 33.536 0 0 0 0-66.8672H233.216a33.536 33.536 0 0 0 0 66.8672zM779.264 486.2464zM742.4 660.9408a78.1824 78.1824 0 1 0 78.1824 78.1824A78.2848 78.2848 0 0 0 742.4 660.9408z m0 100.352a22.1696 22.1696 0 1 1 22.1696-22.1696 22.1696 22.1696 0 0 1-22.1696 22.1696z"  /><path fill="#333333" d="M973.7728 774.8608l-3.9424-2.2016a38.7072 38.7072 0 0 1-14.2336-13.9264 38.144 38.144 0 0 1 14.7968-52.6336l3.8912-2.2016a36.5056 36.5056 0 0 0 13.7728-50.5344l-46.6432-78.9504a38.1952 38.1952 0 0 0-51.712-13.3632l-3.9424 2.1504a40.2944 40.2944 0 0 1-19.6608 5.12 39.2192 39.2192 0 0 1-39.3216-38.9632v-4.4032a37.3248 37.3248 0 0 0-37.7344-36.9664h-93.44a37.9904 37.9904 0 0 0-26.624 10.7008 36.1984 36.1984 0 0 0-11.1104 26.5216v4.4544a37.4784 37.4784 0 0 1-19.7632 33.1776 40.96 40.96 0 0 1-39.6288 0l-3.9424-2.2016a38.6048 38.6048 0 0 0-28.4672-3.6352 37.7856 37.7856 0 0 0-22.9888 17.152L496.64 653.1584a36.5056 36.5056 0 0 0 14.0288 50.6368l3.84 2.2016a38.2464 38.2464 0 0 1 14.4384 13.9776 36.7616 36.7616 0 0 1 3.84 28.928 38.7072 38.7072 0 0 1-18.5344 23.6544l-3.84 2.2016a36.5568 36.5568 0 0 0-13.7728 50.432l46.7968 79.0528a37.8368 37.8368 0 0 0 32.6144 18.432 39.0656 39.0656 0 0 0 18.944-5.12l3.9424-2.3552a39.68 39.68 0 0 1 47.2576 6.144 38.4 38.4 0 0 1 11.6736 27.392v4.352a37.3248 37.3248 0 0 0 37.6832 36.7616H788.48a38.0928 38.0928 0 0 0 26.4704-10.6496 36.4544 36.4544 0 0 0 11.2128-26.4192v-4.4032a36.9664 36.9664 0 0 1 5.12-18.944 38.144 38.144 0 0 1 14.4896-14.0288 40.96 40.96 0 0 1 39.5776 0l3.9424 2.2016a38.4512 38.4512 0 0 0 28.416 3.584 37.632 37.632 0 0 0 22.9888-17.152l46.6432-78.8992a36.5568 36.5568 0 0 0-13.8752-50.6368z m-75.3152-6.144a57.1392 57.1392 0 0 0 21.7088 21.1968l3.2768 1.8432a4.5056 4.5056 0 0 1 1.9456 6.3488l-39.1168 66.048a5.4272 5.4272 0 0 1-3.328 2.4576 5.888 5.888 0 0 1-4.4544-0.5632l-3.2768-1.8432a60.16 60.16 0 0 0-58.4192-0.3072 57.7536 57.7536 0 0 0-22.016 21.4016 56.32 56.32 0 0 0-8.0384 29.2352v3.6864a4.5056 4.5056 0 0 1-1.4336 3.2768 5.6832 5.6832 0 0 1-4.0448 1.6384h-78.1824a5.12 5.12 0 0 1-5.5296-5.12v-3.6864a57.856 57.856 0 0 0-17.5616-41.4208 59.2384 59.2384 0 0 0-70.7072-8.8576l-3.328 1.8432a5.12 5.12 0 0 1-2.9696 0.768 5.6832 5.6832 0 0 1-5.12-2.56l-39.0656-66.0992a4.4544 4.4544 0 0 1 1.8944-6.2976l3.2256-1.8432a58.5216 58.5216 0 0 0 27.8016-35.4816 56.8832 56.8832 0 0 0-5.888-44.3904 57.7024 57.7024 0 0 0-21.8624-21.248l-3.2768-1.792a4.5568 4.5568 0 0 1-1.9968-6.4L598.016 614.4a5.4272 5.4272 0 0 1 3.328-2.4576 5.888 5.888 0 0 1 4.4544 0.5632l3.328 1.8944a60.3648 60.3648 0 0 0 58.5216 0.3584 59.0336 59.0336 0 0 0 22.0672-21.4016 56.32 56.32 0 0 0 7.9872-29.4912v-3.7376a4.608 4.608 0 0 1 1.4336-3.328 5.9392 5.9392 0 0 1 4.096-1.5872h78.2336a5.12 5.12 0 0 1 5.5296 4.864v3.6864A59.0336 59.0336 0 0 0 875.52 614.4l3.328-1.8944a6.0928 6.0928 0 0 1 2.9696-0.768 5.632 5.632 0 0 1 5.12 2.6112l39.0656 66.0992a4.5056 4.5056 0 0 1-1.8944 6.3488l-3.2256 1.792a58.0096 58.0096 0 0 0-22.4256 80.128z"  /><path fill="#333333" d="M134.2464 784.8448V138.752a23.04 23.04 0 0 1 22.7328-22.7328H690.688a23.04 23.04 0 0 1 22.7328 22.7328V419.84h66.9184V138.752A89.7024 89.7024 0 0 0 690.688 49.1008H156.9792A89.7536 89.7536 0 0 0 67.328 138.752v646.0928a89.7536 89.7536 0 0 0 89.6512 89.6h266.8544v-66.9184H156.9792a22.7328 22.7328 0 0 1-22.7328-22.6816z"  /></svg>