<?xml version="1.0" standalone="no"?><!DOCTYPE svg PUBLIC "-//W3C//DTD SVG 1.1//EN" "http://www.w3.org/Graphics/SVG/1.1/DTD/svg11.dtd"><svg class="icon" width="200px" height="200.00px" viewBox="0 0 1024 1024" version="1.1" xmlns="http://www.w3.org/2000/svg"><path fill="#333333" d="M512 0a512 512 0 1 0 512 512 512 512 0 0 0-512-512z m0 51.2c12.544 0 24.896 0.896 37.12 1.92a679.808 679.808 0 0 0-295.232 199.168 989.312 989.312 0 0 0-107.008-20.288A459.84 459.84 0 0 1 512 51.2zM51.2 512a457.408 457.408 0 0 1 70.72-244.224 950.72 950.72 0 0 1 104.768 17.856 681.792 681.792 0 0 0-139.392 405.12A458.24 458.24 0 0 1 51.2 512z m76.48 253.568c-1.088-10.624-2.368-21.184-2.88-32a645.696 645.696 0 0 1 140.928-438.272 945.92 945.92 0 0 1 160.192 58.368l16.448-34.688a983.36 983.36 0 0 0-148.48-55.872 642.304 642.304 0 0 1 340.544-194.88 461.952 461.952 0 0 1 264.576 194.56c0.32 8.32 0.96 16.512 0.96 24.896a655.04 655.04 0 0 1-107.328 359.232 717.312 717.312 0 0 0-94.72-139.008l-28.736 25.472a680 680 0 0 1 99.392 148.672 654.464 654.464 0 0 1-432.576 255.68 463.296 463.296 0 0 1-208.32-172.16zM512 972.8a459.328 459.328 0 0 1-102.912-11.968 690.688 690.688 0 0 0 375.808-240.768 781.376 781.376 0 0 1 41.984 127.424A458.624 458.624 0 0 1 512 972.8z m345.984-157.44a807.936 807.936 0 0 0-46.336-131.136 691.072 691.072 0 0 0 123.072-355.2 458.24 458.24 0 0 1-76.8 486.4z"  /><path fill="#333333" d="M700.736 415.168h1.408A141.568 141.568 0 0 0 812.8 364.16a137.152 137.152 0 0 0 28.096-112.448 34.88 34.88 0 0 0-12.352-20.8l-8.384-5.44-4.8-1.28a34.944 34.944 0 0 0-35.648 11.776l-27.328 33.664-38.4 8.64-36.864-30.08-1.6-41.92 25.6-31.552a34.624 34.624 0 0 0 4.032-37.632l-5.312-8.192-3.712-3.008a34.304 34.304 0 0 0-21.632-7.808l-2.368 0.128a135.232 135.232 0 0 0-98.752 51.52 146.176 146.176 0 0 0-24.576 128.192L318.784 581.248a142.08 142.08 0 0 0-107.648 50.88 136.768 136.768 0 0 0-27.968 112.32 34.56 34.56 0 0 0 12.288 20.992l8.448 5.504 4.864 1.152a34.88 34.88 0 0 0 35.52-11.712l27.328-33.664 38.4-8.64 36.864 30.08 1.6 41.92-25.6 31.552a34.752 34.752 0 0 0-3.84 37.952l5.312 8 3.584 2.944a34.432 34.432 0 0 0 21.76 7.744l2.304-0.064a135.616 135.616 0 0 0 98.688-51.584 145.792 145.792 0 0 0 23.36-132.288zM444.16 670.08l-12.8 15.744 5.76 19.456a107.136 107.136 0 0 1-16.32 97.152 100.8 100.8 0 0 1-63.488 37.568l20.928-25.728 9.152-11.2-0.64-14.464-1.6-41.92-0.64-17.28-13.44-10.944-36.736-30.08-14.528-11.84-18.24 4.096-38.4 8.64-13.056 2.88-8.32 10.368-22.08 27.072a97.92 97.92 0 0 1 21.184-73.28 103.168 103.168 0 0 1 78.656-36.672l17.728-0.384 11.264-13.76L578.56 322.176l12.352-15.168-5.12-18.944a107.328 107.328 0 0 1 17.28-94.08 96.64 96.64 0 0 1 62.592-36.48l-20.032 24.576-9.088 11.264 0.512 14.464 1.664 41.92 0.64 17.28 13.44 10.944 36.736 30.08 14.528 11.904 18.24-4.16 38.464-8.64 12.992-2.88 8.384-10.368 22.016-27.136a98.432 98.432 0 0 1-21.248 73.28 103.616 103.616 0 0 1-81.92 36.736l-18.496-0.192-11.648 14.4z"  /></svg>