<?xml version="1.0" standalone="no"?><!DOCTYPE svg PUBLIC "-//W3C//DTD SVG 1.1//EN" "http://www.w3.org/Graphics/SVG/1.1/DTD/svg11.dtd"><svg class="icon" width="200px" height="200.00px" viewBox="0 0 1024 1024" version="1.1" xmlns="http://www.w3.org/2000/svg"><path d="M597.3 709.1H173c-35.2 0-63.9-28.7-63.9-63.9V271.1c0-35.2 28.7-63.9 63.9-63.9h606c35.2 0 63.9 28.7 63.9 63.9v156.1c0 13.8-11.2 25-25 25s-25-11.2-25-25V271.1c0-7.7-6.2-13.9-13.9-13.9H173c-7.7 0-13.9 6.2-13.9 13.9v374.1c0 7.7 6.2 13.9 13.9 13.9h424.3c13.8 0 25 11.2 25 25s-11.2 25-25 25z"  /><path d="M476 802.5c-13.8 0-25-11.2-25-25v-91.4c0-13.8 11.2-25 25-25s25 11.2 25 25v91.4c0 13.8-11.2 25-25 25z"  /><path d="M588.4 817.1H363.6c-13.8 0-25-11.2-25-25s11.2-25 25-25h224.8c13.8 0 25 11.2 25 25s-11.2 25-25 25zM568.3 641.1H134.1c-11 0-20-9-20-20s9-20 20-20h434.2c11 0 20 9 20 20s-9 20-20 20z"  /><path d="M747.6 819.3c-2.2 0-4.3-0.3-6.5-0.9L669 799.1c-8.6-2.3-15.4-9-17.7-17.7-8.8-32.6-34.5-58.4-67.1-67.1-8.6-2.3-15.4-9.1-17.7-17.7l-19.3-72.1c-2.3-8.6 0.2-17.8 6.5-24.1 23.9-23.9 33.3-59 24.5-91.6-2.3-8.6 0.2-17.8 6.5-24.2l52.8-52.8c6.3-6.3 15.5-8.8 24.2-6.5 32.6 8.8 67.8-0.6 91.6-24.5 6.3-6.3 15.5-8.8 24.1-6.5l72.1 19.3c8.6 2.3 15.4 9 17.7 17.7 8.8 32.7 34.5 58.4 67.1 67.1 8.6 2.3 15.4 9.1 17.7 17.7l19.3 72.1c2.3 8.6-0.2 17.8-6.5 24.1-23.9 23.9-33.3 59-24.5 91.6 2.3 8.6-0.2 17.8-6.5 24.2L881.1 781c-6.3 6.3-15.5 8.8-24.2 6.5-32.6-8.8-67.8 0.6-91.6 24.5-4.8 4.7-11.2 7.3-17.7 7.3zM695 754.4l45.9 12.3c31.9-25.9 73.7-37.1 114.3-30.6l33.6-33.6c-6.5-40.6 4.7-82.4 30.6-114.3l-12.3-45.9c-38.4-14.7-69-45.3-83.7-83.7l-45.9-12.3c-31.9 25.9-73.7 37.1-114.3 30.6l-33.6 33.6c6.5 40.6-4.7 82.4-30.6 114.3l12.3 45.9c38.5 14.7 69 45.2 83.7 83.7z"  /><path d="M761.6 698.6c-50.2 0-91.1-40.9-91.1-91.1 0-50.2 40.9-91.1 91.1-91.1 50.2 0 91.1 40.9 91.1 91.1 0 50.2-40.9 91.1-91.1 91.1z m0-132.2c-22.7 0-41.1 18.4-41.1 41.1 0 22.7 18.4 41.1 41.1 41.1 22.7 0 41.1-18.4 41.1-41.1 0-22.7-18.4-41.1-41.1-41.1zM253.8 574.1c-6.4 0-12.8-2.4-17.7-7.3-9.8-9.8-9.8-25.6 0-35.4l146.5-146.5c17.2-17.2 45.1-17.2 62.3 0l56.2 56.2L650.3 292c9.8-9.8 25.6-9.7 35.4 0 9.8 9.8 9.7 25.6 0 35.4L532.2 480.7c-17.2 17.2-45.1 17.2-62.2 0l-56.2-56.2-142.3 142.3c-4.9 4.9-11.3 7.3-17.7 7.3z" fill="#C4C4C4" /></svg>