<?xml version="1.0" standalone="no"?><!DOCTYPE svg PUBLIC "-//W3C//DTD SVG 1.1//EN" "http://www.w3.org/Graphics/SVG/1.1/DTD/svg11.dtd"><svg class="icon" width="200px" height="200.00px" viewBox="0 0 1024 1024" version="1.1" xmlns="http://www.w3.org/2000/svg"><path fill="#333333" d="M656.6 505c-10.6 0-20.9 4.3-28.4 11.9l-71.6 66.6V406.3c0-23.7-16.7-40.2-40.6-40.2-23.9 0-40.5 16.5-40.5 40.2v178.3l-77.3-67.9c-7.4-7.5-17.7-11.7-28.2-11.7-10.7 0-21.1 4.4-28.5 12-7.8 7.7-12 17.7-12 28.2s4.3 20.6 12.1 28.3l137.9 130.8c6.2 6.2 14.8 14.5 31.1 14.5s24.8-8.4 31.1-14.6l136.9-129.9c10.5-7.2 16.8-17.2 17.9-28 1-10.5-3.1-21.3-11.3-29.4-7.5-7.5-17.9-11.9-28.6-11.9zM885.3 267.1c-2-3.8-5.2-7.1-9.6-8.8l-103-112.6-1.3-0.9c-19.4-12.8-38.6-18.5-62.3-18.5H328.7c-30.3 0-52.8 9.1-65.1 26.4L154.2 260.9l-4 4c-35.4 18.3-54.9 49.1-54.9 86.9V804c0 24.2 10.4 48.4 28.7 66.4 18.2 18 42.6 28.3 67 28.3h644.8c24.4 0 48.8-10.3 67-28.3 18.2-18 28.7-42.2 28.7-66.4V351.9c-0.1-34.9-16.9-65.5-46.2-84.8z m-618.7-9.9l49.1-48.5c1.6-1.5 2.3-1.7 7.4-1.7h380.3c4.9 0 5.8 0.2 7.3 1.6l45.5 48.7H266.6z m583.7 94.7V804c0 9.2-5.2 14.2-14.6 14.2H190.9c-9.4 0-14.6-5.1-14.6-14.2V351.9c0-9.2 5.2-14.2 14.6-14.2h644.8c9.4-0.1 14.6 5 14.6 14.2z" /></svg>