<?xml version="1.0" standalone="no"?>
<!DOCTYPE svg PUBLIC "-//W3C//DTD SVG 1.1//EN" "http://www.w3.org/Graphics/SVG/1.1/DTD/svg11.dtd"><svg class="icon"
    width="200px" height="200.00px" viewBox="0 0 1024 1024" version="1.1" xmlns="http://www.w3.org/2000/svg">
    <path fill="#333333"
        d="M848.445305 758.128746l-279.347088 159.866816c1.966079 5.939198 3.031039 12.287995 3.031039 18.882553 0 33.669107-27.525109 60.907496-61.439975 60.907495a61.194216 61.194216 0 0 1-60.375016-72.376291l-282.132367-161.464255a61.521895 61.521895 0 0 1-45.301742 19.742712c-33.914866 0-61.439975-27.279349-61.439976-60.948455 0-24.78079 14.950394-46.120942 36.454386-55.623658V340.377873A60.907496 60.907496 0 0 1 61.44018 284.754216a61.644775 61.644775 0 0 1 87.982045-54.927338l299.86804-171.622332C450.723865 25.805199 477.675534 0.00041 510.689281 0.00041a61.194216 61.194216 0 0 1 61.153255 66.600933l292.822923 167.608253c9.666556-6.389757 21.299191-10.076156 33.791986-10.076156 33.955826 0 61.439975 27.279349 61.439976 60.907496 0 30.228468-22.200311 55.295978-51.2819 60.088296v317.521793c29.081588 4.792318 51.281899 29.900788 51.2819 60.088296 0 33.669107-27.484149 60.948456-61.439976 60.948455-20.602872 0-38.911984-10.117116-50.01214-25.55903zM510.689281 121.815401c-7.987197 0-15.564794-1.474559-22.527991-4.218878L406.732842 261.734705h192.962483l-79.380448-140.697544a62.423015 62.423015 0 0 1-9.625596 0.73728zM359.710781 261.775665l87.654365-155.238338-268.287893 153.518019 0.73728 1.720319h179.896248z m-178.094009 40.959984c-2.047999 6.553597-5.160958 12.615675-9.134076 17.981432l77.004769 136.396746 87.121885-154.378178H181.616772zM138.813589 344.473872v308.797316l87.162845-154.419138-87.162845-154.419138z m110.673876 196.075441l-80.281568 142.254023c3.276799 3.686399 6.062078 7.782397 8.314877 12.124156h159.088576l-87.121885-154.419139z m110.223316 195.379122h-158.105537l233.553827 133.652427-75.44829-133.693387z m128.491469 144.302023a61.726695 61.726695 0 0 1 32.030707-3.481599l79.462368-140.861384h-192.921523l81.428448 144.342983z m83.107806-10.649596l233.553827-133.693387h-158.105537l-75.44829 133.693387z m98.549721-174.65337H843.775867l0.16384-0.24576-86.999005-154.132419-87.121885 154.419139z m110.632916-196.075442l87.162845 154.419138v-308.838276l-87.162845 154.419138z m60.866535-191.201203A59.719656 59.719656 0 0 1 839.679869 302.694689h-169.820092l87.121885 154.419138 84.377566-149.5449z m-10.977275-45.834222l-271.277972-155.238338 87.654365 155.238338h183.623607z m-207.544237 40.959983h-239.206305l-110.632915 196.075442 110.632915 196.075442h239.206305l110.632915-196.075442-110.632915-196.075442z" />
</svg>